<svg width="60" height="60" viewBox="0 0 60 60" fill="none" xmlns="http://www.w3.org/2000/svg">
<path d="M17.575 12.375L8.75 21.25C0.425 29.525 0.425 42.975 8.75 51.25C17.075 59.525 30.475 59.575 38.75 51.25L53.75 36.25C56.25 33.825 56.25 29.85 53.75 27.4C53.5 27.1 53.175 26.825 52.825 26.6L53.75 25.625C56.25 23.2 56.25 19.225 53.75 16.775C53.4 16.375 52.925 16.025 52.5 15.75C53.45 13.45 53.025 10.7 51.15 8.825C48.975 6.65 45.6 6.425 43.15 8.125C42.6413 7.34145 41.9645 6.68099 41.1687 6.19159C40.373 5.70218 39.4782 5.3961 38.5494 5.29556C37.6207 5.19502 36.6811 5.30255 35.7991 5.61034C34.917 5.91813 34.1146 6.41845 33.45 7.075L27.175 13.35C26.95 13 26.675 12.675 26.375 12.375C25.1952 11.2325 23.6173 10.5937 21.975 10.5937C20.3327 10.5937 18.7548 11.2325 17.575 12.375ZM21.1 15.925C21.6 15.425 22.375 15.425 22.875 15.925C23.375 16.425 23.375 17.2 22.875 17.7L14.925 25.65C16.3295 27.0563 17.1184 28.9625 17.1184 30.95C17.1184 32.9375 16.3295 34.8437 14.925 36.25L18.45 39.775C20.1683 38.0551 21.3482 35.8718 21.8455 33.492C22.3428 31.1122 22.1358 28.6391 21.25 26.375L37 10.625C37.5 10.125 38.275 10.125 38.75 10.625C39.225 11.125 39.275 11.9 38.75 12.4L27.275 23.9L30.8 27.425L45.825 12.4C46.325 11.9 47.1 11.9 47.6 12.4C48.1 12.9 48.1 13.675 47.6 14.175L32.575 29.2L36.1 32.725L48.475 20.35C48.975 19.85 49.75 19.85 50.25 20.35C50.75 20.85 50.75 21.625 50.25 22.125L36.1 36.25L39.625 39.8L48.475 30.95C48.975 30.45 49.75 30.45 50.25 30.95C50.75 31.45 50.75 32.225 50.25 32.725L35.25 47.75C28.9 54.1 18.625 54.1 12.275 47.75C5.925 41.4 5.925 31.125 12.275 24.775L21.1 15.925ZM57.5 42.5C57.5 50.775 50.775 57.5 42.5 57.5V53.75C48.75 53.75 53.75 48.75 53.75 42.5H57.5ZM2.5 17.5C2.5 9.225 9.225 2.5 17.5 2.5V6.25C11.25 6.25 6.25 11.25 6.25 17.5H2.5Z" fill="#002995"/>
</svg>
